<?xml version="1.0" encoding="UTF-8"?>
<svg version="1.1" xmlns="http://www.w3.org/2000/svg" width="502" height="126">
<path d="M0 0 C1.10601562 0.01675781 2.21203125 0.03351562 3.3515625 0.05078125 C12.42577784 0.31766994 21.49516991 0.75057624 30.5625 1.1875 C30.58936553 3.16659398 30.60883375 5.14578971 30.625 7.125 C30.63660156 8.22714844 30.64820313 9.32929687 30.66015625 10.46484375 C30.5625 13.1875 30.5625 13.1875 29.5625 14.1875 C27.22952567 14.22842937 24.89544775 14.22991723 22.5625 14.1875 C23.0575 15.1775 23.0575 15.1775 23.5625 16.1875 C24.3381921 23.02884995 23.6015948 28.52227612 19.5625 34.1875 C15.48827674 38.157256 11.71120623 40.06930934 6.01171875 40.3828125 C4.14966797 40.34800781 4.14966797 40.34800781 2.25 40.3125 C0.36861328 40.28542969 0.36861328 40.28542969 -1.55078125 40.2578125 C-2.97970703 40.22300781 -2.97970703 40.22300781 -4.4375 40.1875 C-5.4275 42.6625 -5.4275 42.6625 -6.4375 45.1875 C-5.848479 45.20731934 -5.25945801 45.22713867 -4.65258789 45.24755859 C-1.93467649 45.34393277 0.78258103 45.45314712 3.5 45.5625 C4.42619141 45.5934375 5.35238281 45.624375 6.30664062 45.65625 C22.68328422 46.34579289 22.68328422 46.34579289 28.5625 51.1875 C31.46187048 55.58654487 32.19252934 58.96725688 31.5625 64.1875 C29.59706367 70.00607986 26.67230031 73.6807743 21.5625 77.1875 C11.28280428 82.23717509 -2.64424935 83.25704757 -13.75 80.0625 C-17.97671116 78.27715049 -20.06471333 76.11742793 -22.4375 72.1875 C-23.73550433 68.12312395 -23.74157398 64.97809235 -22.1875 60.9375 C-20.69460484 58.59152189 -19.18424247 56.35013354 -17.4375 54.1875 C-17.9325 53.506875 -18.4275 52.82625 -18.9375 52.125 C-20.81608915 48.44609625 -20.93988846 46.2783775 -20.4375 42.1875 C-18.4375 38.75 -18.4375 38.75 -16.4375 36.1875 C-16.705625 35.671875 -16.97375 35.15625 -17.25 34.625 C-17.641875 33.820625 -18.03375 33.01625 -18.4375 32.1875 C-18.97375 31.15625 -19.51 30.125 -20.0625 29.0625 C-22.24208756 23.84266724 -22.41223654 18.34851004 -20.74609375 12.9453125 C-18.15059562 7.18960534 -14.55104379 3.40991733 -8.58203125 1.06640625 C-5.51531587 0.20924978 -3.16838878 -0.0483388 0 0 Z M-3.8125 13.625 C-6.21263557 17.40982917 -6.2217297 20.8262226 -5.4375 25.1875 C-3.99735074 27.87888543 -3.99735074 27.87888543 -1.4375 29.1875 C1.5625 29.85416667 1.5625 29.85416667 4.5625 29.1875 C7.15556324 27.29526466 8.29755239 25.84103745 9.5 22.875 C9.58815938 19.08414683 8.29093685 16.51634133 6.5625 13.1875 C2.87664478 11.34457239 -0.30823798 11.5039993 -3.8125 13.625 Z M-8.3984375 61.04296875 C-9.7158125 63.20180817 -9.7158125 63.20180817 -8.875 65.8125 C-7.20912375 68.56481729 -6.39389915 69.05159364 -3.4375 70.1875 C1.82466449 70.81778711 7.5885006 71.31832931 12.25 68.4375 C14.61407212 66.40110222 14.61407212 66.40110222 15.5625 64.0625 C15.5625 63.44375 15.5625 62.825 15.5625 62.1875 C11.69529649 58.32029649 5.59271009 58.98125562 0.375 58.875 C-0.83542969 58.83761719 -2.04585937 58.80023438 -3.29296875 58.76171875 C-6.49921423 58.88437785 -6.49921423 58.88437785 -8.3984375 61.04296875 Z " fill="#000000" transform="translate(214.4375,34.8125)"/>
<path d="M0 0 C4.95 0 9.9 0 15 0 C16.77490546 1.77490546 16.23499973 4.37784902 16.31640625 6.78515625 C16.35830078 7.95498047 16.40019531 9.12480469 16.44335938 10.33007812 C16.48267578 11.56177734 16.52199219 12.79347656 16.5625 14.0625 C16.60568359 15.29806641 16.64886719 16.53363281 16.69335938 17.80664062 C16.79984198 20.87097335 16.90185424 23.93539073 17 27 C17.928125 26.360625 18.85625 25.72125 19.8125 25.0625 C25.63462397 21.29524332 31.23394686 21.37268381 38 22 C43.47943918 24.44617821 45.51527416 27.75446767 48 33 C49.3636699 37.81867062 49.12635178 42.71151044 49.09765625 47.67578125 C49.0962413 48.6009404 49.09482635 49.52609955 49.09336853 50.47929382 C49.08778715 53.42372927 49.07523805 56.36808767 49.0625 59.3125 C49.05748259 61.31314994 49.05292011 63.31380108 49.04882812 65.31445312 C49.03782381 70.20966494 49.02057198 75.10481942 49 80 C46.52076199 80.02685095 44.0418116 80.04676547 41.5625 80.0625 C40.85544922 80.07087891 40.14839844 80.07925781 39.41992188 80.08789062 C37.61306441 80.09653588 35.80612397 80.05220011 34 80 C31.99335065 77.99335065 32.79142751 73.9587385 32.75390625 71.203125 C32.72095272 69.58853655 32.68774134 67.97395335 32.65429688 66.359375 C32.60697322 63.80733043 32.56258187 61.25530481 32.52319336 58.703125 C32.48334662 56.24455726 32.43181558 53.78644153 32.37890625 51.328125 C32.3704921 50.56961243 32.36207794 49.81109985 32.35340881 49.02960205 C32.22997413 42.48174224 32.22997413 42.48174224 29 37 C25.30469213 36.57031304 23.23276823 36.89110858 19.84106445 38.4777832 C16.6214737 40.82073585 16.6214737 40.82073585 16.24291992 44.92651367 C16.20882457 46.50663634 16.2065299 48.08765958 16.23046875 49.66796875 C16.21913406 50.50338699 16.20779938 51.33880524 16.19612122 52.19953918 C16.16541283 54.86282671 16.17524175 57.52409526 16.1875 60.1875 C16.17334961 62.86096395 16.1510192 65.53421986 16.12532043 68.20759583 C16.11223778 69.87021927 16.10754998 71.53293309 16.11186218 73.19560242 C16.10745067 78.89254933 16.10745067 78.89254933 15 80 C10.05 80 5.1 80 0 80 C0 53.6 0 27.2 0 0 Z " fill="#000000" transform="translate(253,13)"/>
<path d="M0 0 C5.13584122 4.04480759 6.95870138 9.0213683 8.5078125 15.1875 C8.86702184 18.40957131 8.86131026 21.5776613 8.80078125 24.81640625 C8.79653641 25.69151352 8.79229156 26.56662079 8.78791809 27.46824646 C8.77129231 30.22916072 8.73367216 32.98931105 8.6953125 35.75 C8.68024478 37.63605707 8.66656006 39.52212573 8.65429688 41.40820312 C8.62144187 46.00159083 8.56977385 50.59441647 8.5078125 55.1875 C3.8878125 55.1875 -0.7321875 55.1875 -5.4921875 55.1875 C-6.1521875 53.8675 -6.8121875 52.5475 -7.4921875 51.1875 C-8.5853125 51.826875 -9.6784375 52.46625 -10.8046875 53.125 C-16.33223476 56.35809368 -21.18075099 56.72904291 -27.4921875 56.1875 C-33.13160063 54.20326205 -35.93868262 51.06148403 -38.7421875 45.875 C-40.19141568 40.68193234 -39.9125597 36.56538664 -38.3671875 31.5 C-34.55389526 24.76318371 -29.57288184 22.39150027 -22.4609375 19.96875 C-17.84443877 18.75388191 -13.25051083 18.3715744 -8.4921875 18.1875 C-9.48177747 15.12199408 -9.48177747 15.12199408 -11.4921875 12.1875 C-16.21582394 10.45228661 -19.16977178 11.29188019 -23.6171875 13.1875 C-24.42414063 13.579375 -25.23109375 13.97125 -26.0625 14.375 C-29.03553057 15.36919672 -30.56045049 15.27224269 -33.4921875 14.1875 C-34.890625 12.4453125 -34.890625 12.4453125 -35.8671875 10.3125 C-36.20492187 9.61382812 -36.54265625 8.91515625 -36.890625 8.1953125 C-37.4921875 6.1875 -37.4921875 6.1875 -36.4921875 3.1875 C-34.12890625 1.8359375 -34.12890625 1.8359375 -31.1796875 0.5625 C-30.21417969 0.13710938 -29.24867187 -0.28828125 -28.25390625 -0.7265625 C-19.79200835 -4.05387172 -7.96918581 -4.96780414 0 0 Z M-21.4921875 33.1875 C-23.77357695 35.94448184 -23.77357695 35.94448184 -23.3046875 38.75 C-22.65846308 41.52005117 -22.65846308 41.52005117 -19.4921875 43.1875 C-15.64505334 43.04501355 -12.98665415 42.43999361 -9.5546875 40.6875 C-6.82813106 37.3825831 -7.08168775 35.17349563 -7.31640625 31.015625 C-7.37441406 30.41234375 -7.43242188 29.8090625 -7.4921875 29.1875 C-12.621055 28.52571065 -17.14309755 30.63273007 -21.4921875 33.1875 Z " fill="#000000" transform="translate(111.4921875,37.8125)"/>
<path d="M0 0 C5.28 0 10.56 0 16 0 C19.96 11.88 23.92 23.76 28 36 C31.24804669 24.90124127 31.24804669 24.90124127 34.49194336 13.80126953 C34.89942619 12.41173967 35.30704998 11.02225114 35.71484375 9.6328125 C36.03104675 8.54697876 36.03104675 8.54697876 36.3536377 7.43920898 C37.8859282 2.2281436 37.8859282 2.2281436 39 0 C44.28 0 49.56 0 55 0 C53.00135831 7.57868233 50.74996742 14.99665521 48.19921875 22.40625 C47.84036087 23.45220337 47.48150299 24.49815674 47.11177063 25.57580566 C46.35652408 27.77143438 45.59927008 29.96637353 44.84008789 32.16064453 C43.69165051 35.48797486 42.55761201 38.8199965 41.42382812 42.15234375 C40.68317441 44.29978383 39.94166605 46.44692937 39.19921875 48.59375 C38.86774338 49.57428345 38.53626801 50.55481689 38.19474792 51.56506348 C30.90647851 72.41529981 30.90647851 72.41529981 22 77 C15.29406705 79.0373611 9.5338334 79.67293184 3 77 C3.99 71.06 3.99 71.06 5 65 C6.4025 64.9175 7.805 64.835 9.25 64.75 C12.30766822 64.38942592 13.85079187 64.09325508 16.5 62.4375 C18.61443553 59.00154227 19.20861259 55.9726581 19 52 C17.74735121 47.65010529 15.94651898 43.57605486 14.125 39.4375 C13.11068138 37.04221582 12.09768499 34.64637134 11.0859375 32.25 C10.5712793 31.04601562 10.05662109 29.84203125 9.52636719 28.6015625 C7.1858025 23.07884812 4.95450017 17.5156616 2.75 11.9375 C2.35570801 10.96288818 1.96141602 9.98827637 1.55517578 8.98413086 C1.20181152 8.09089111 0.84844727 7.19765137 0.484375 6.27734375 C0.17209961 5.49609131 -0.14017578 4.71483887 -0.46191406 3.90991211 C-1 2 -1 2 0 0 Z " fill="#000000" transform="translate(309,36)"/>
<path d="M0 0 C1.12148438 -0.02578125 2.24296875 -0.0515625 3.3984375 -0.078125 C8.09781242 0.39977753 10.61548799 2.18280159 13.8125 5.5625 C17.90519166 11.63097384 17.89859762 17.39671769 17.8203125 24.4609375 C17.8174826 25.42907379 17.81465271 26.39721008 17.81173706 27.39468384 C17.80058696 30.47158428 17.7754918 33.54818828 17.75 36.625 C17.73996352 38.7174437 17.73083884 40.80989198 17.72265625 42.90234375 C17.70066453 48.01834251 17.66617025 53.13412108 17.625 58.25 C12.345 58.25 7.065 58.25 1.625 58.25 C1.61041748 57.12505127 1.59583496 56.00010254 1.58081055 54.84106445 C1.52272246 50.65682613 1.44549036 46.47312003 1.36254883 42.28930664 C1.32934886 40.48047542 1.30130159 38.67154182 1.27856445 36.86254883 C1.24492742 34.25818367 1.19260805 31.6547524 1.13671875 29.05078125 C1.13032883 28.24538406 1.1239389 27.43998688 1.11735535 26.61018372 C0.99722773 21.99537022 0.49883986 19.06728904 -2.375 15.25 C-3.6125 15.3325 -4.85 15.415 -6.125 15.5 C-6.82109375 15.54640625 -7.5171875 15.5928125 -8.234375 15.640625 C-11.33682446 16.52380404 -12.41458762 17.67029838 -14.375 20.25 C-14.79279971 23.26727626 -14.97979843 25.9338672 -14.984375 28.953125 C-15.00091125 29.79091492 -15.01744751 30.62870483 -15.03448486 31.49188232 C-15.08297499 34.16132937 -15.10433745 36.83020674 -15.125 39.5 C-15.15315893 41.31252868 -15.18308625 43.1250308 -15.21484375 44.9375 C-15.28873394 49.37495309 -15.33830214 53.81208977 -15.375 58.25 C-20.655 58.25 -25.935 58.25 -31.375 58.25 C-31.375 39.44 -31.375 20.63 -31.375 1.25 C-27.085 1.25 -22.795 1.25 -18.375 1.25 C-17.715 2.9 -17.055 4.55 -16.375 6.25 C-15.90449219 5.90066406 -15.43398438 5.55132812 -14.94921875 5.19140625 C-14.32660156 4.73636719 -13.70398438 4.28132813 -13.0625 3.8125 C-12.44761719 3.36003906 -11.83273437 2.90757813 -11.19921875 2.44140625 C-7.5596318 0.06437409 -4.23635523 0.05816506 0 0 Z " fill="#000000" transform="translate(464.375,34.75)"/>
<path d="M0 0 C4.761424 3.04635188 7.03985654 6.7880057 8.51116943 12.13674927 C9.30638499 16.1749295 9.16789367 20.23151317 9.12109375 24.33203125 C9.11826385 25.27655655 9.11543396 26.22108185 9.11251831 27.19422913 C9.10138809 30.18951474 9.07629685 33.18449336 9.05078125 36.1796875 C9.0407422 38.2193967 9.03161797 40.25911062 9.0234375 42.29882812 C9.00147221 47.2800649 8.96699201 52.26107428 8.92578125 57.2421875 C3.64578125 57.2421875 -1.63421875 57.2421875 -7.07421875 57.2421875 C-7.08880127 56.11723877 -7.10338379 54.99229004 -7.1184082 53.83325195 C-7.17649629 49.64901363 -7.25372839 45.46530753 -7.33666992 41.28149414 C-7.36986989 39.47266292 -7.39791716 37.66372932 -7.4206543 35.85473633 C-7.45429133 33.25037117 -7.5066107 30.6469399 -7.5625 28.04296875 C-7.56888992 27.23757156 -7.57527985 26.43217438 -7.5818634 25.60237122 C-7.700198 21.05643836 -8.054512 17.88888816 -11.07421875 14.2421875 C-14.85232038 13.48656717 -16.75194145 14.08945098 -20.2253418 15.7355957 C-23.4548492 18.06143837 -23.4548492 18.06143837 -23.83129883 22.16870117 C-23.86539418 23.74882384 -23.86768885 25.32984708 -23.84375 26.91015625 C-23.85508469 27.74557449 -23.86641937 28.58099274 -23.87809753 29.44172668 C-23.90880592 32.10501421 -23.898977 34.76628276 -23.88671875 37.4296875 C-23.90086914 40.10315145 -23.92319955 42.77640736 -23.94889832 45.44978333 C-23.96198097 47.11240677 -23.96666877 48.77512059 -23.96235657 50.43778992 C-23.96676808 56.13473683 -23.96676808 56.13473683 -25.07421875 57.2421875 C-30.02421875 57.2421875 -34.97421875 57.2421875 -40.07421875 57.2421875 C-40.07421875 38.4321875 -40.07421875 19.6221875 -40.07421875 0.2421875 C-35.78421875 0.2421875 -31.49421875 0.2421875 -27.07421875 0.2421875 C-26.41421875 1.8921875 -25.75421875 3.5421875 -25.07421875 5.2421875 C-24.35234375 4.6234375 -23.63046875 4.0046875 -22.88671875 3.3671875 C-16.50324324 -1.45588289 -7.63804639 -2.79054802 0 0 Z " fill="#000000" transform="translate(173.07421875,35.7578125)"/>
<path d="M0 0 C5.28 0 10.56 0 16 0 C16.04898437 2.52914062 16.09796875 5.05828125 16.1484375 7.6640625 C16.20252164 10.12652253 16.25979983 12.58888912 16.31738281 15.05126953 C16.35555219 16.75627619 16.39042566 18.46136006 16.421875 20.16650391 C16.46778836 22.62430326 16.52573769 25.08157652 16.5859375 27.5390625 C16.59748871 28.29555084 16.60903992 29.05203918 16.62094116 29.83145142 C16.74251699 34.2386831 17.38256414 37.8968206 19 42 C21.71357535 42.87134188 21.71357535 42.87134188 25 43 C27.62223862 41.51571399 29.8647265 40.1352735 32 38 C32.16017166 35.19023482 32.25950534 32.40226404 32.31640625 29.58984375 C32.33718735 28.74780899 32.35796844 27.90577423 32.37937927 27.03822327 C32.44496812 24.33806821 32.50380276 21.63781283 32.5625 18.9375 C32.60567637 17.11131759 32.64929036 15.28514546 32.69335938 13.45898438 C32.80065894 8.97276008 32.90189966 4.4864345 33 0 C38.28 0 43.56 0 49 0 C49 18.81 49 37.62 49 57 C44.71 57 40.42 57 36 57 C35.34 55.35 34.68 53.7 34 52 C33.45730469 52.34933594 32.91460937 52.69867188 32.35546875 53.05859375 C31.64003906 53.51363281 30.92460937 53.96867187 30.1875 54.4375 C29.12595703 55.11619141 29.12595703 55.11619141 28.04296875 55.80859375 C23.24292827 58.60785254 18.39879349 58.55987488 13 58 C8.33633627 56.6811445 5.10667157 54.73895368 2.5625 50.5625 C-0.13008971 44.42339547 -0.13580593 38.9240394 -0.09765625 32.32421875 C-0.0962413 31.3990596 -0.09482635 30.47390045 -0.09336853 29.52070618 C-0.08778715 26.57627073 -0.07523805 23.63191233 -0.0625 20.6875 C-0.05748259 18.68685006 -0.05292011 16.68619892 -0.04882812 14.68554688 C-0.03782381 9.79033506 -0.02057198 4.89518058 0 0 Z " fill="#000000" transform="translate(370,36)"/>
<path d="M0 0 C5.94 0 11.88 0 18 0 C19.5697294 3.94980612 21.13736506 7.90031181 22.69970703 11.85302734 C23.2320106 13.19791391 23.76553404 14.54231832 24.30029297 15.88623047 C25.06798081 17.81613217 25.8312893 19.74771573 26.59375 21.6796875 C27.05458984 22.84226074 27.51542969 24.00483398 27.99023438 25.20263672 C29 28 29 28 29 30 C29.66 30 30.32 30 31 30 C31.11786865 29.29786377 31.2357373 28.59572754 31.35717773 27.87231445 C32.05371304 24.75999471 33.08780242 21.99846239 34.28515625 19.04296875 C34.73310547 17.93115234 35.18105469 16.81933594 35.64257812 15.67382812 C36.11115234 14.52333984 36.57972656 13.37285156 37.0625 12.1875 C37.53494141 11.01767578 38.00738281 9.84785156 38.49414062 8.64257812 C39.65887812 5.76014694 40.82892662 2.87986286 42 0 C47.94 0 53.88 0 60 0 C57.7564809 6.7305573 57.7564809 6.7305573 56.04467773 9.90869141 C55.66771759 10.61961945 55.29075745 11.33054749 54.90237427 12.0630188 C54.5001767 12.81823822 54.09797913 13.57345764 53.68359375 14.3515625 C43.1574406 34.66084324 35.77832299 50.66273196 38 74 C32.72 74 27.44 74 22 74 C22.13664062 72.49179688 22.27328125 70.98359375 22.4140625 69.4296875 C23.3892209 48.5704912 15.73582969 33.15856421 6.05847168 15.12353516 C3.45538191 10.20825288 1.65081956 5.31453192 0 0 Z " fill="#000000" transform="translate(10,19)"/>
</svg>
